<svg xmlns="http://www.w3.org/2000/svg" aria-hidden="true" class="execedos-brand-mark" focusable="false" viewbox="0 0 64 64"><path d="M22 9.4A24.5 24.5 0 0 1 53.2 42.8M42.2 54.6A24.5 24.5 0 0 1 10.8 21.2" fill="none" stroke="currentColor" stroke-linecap="round" stroke-width="3.8"></path><circle cx="14.5" cy="17.2" fill="currentColor" r="3.6"></circle><circle cx="49.5" cy="46.8" fill="currentColor" r="3.6"></circle><rect fill="currentColor" height="11.6" rx="2" width="11.6" x="19.4" y="19.8"></rect><rect fill="currentColor" height="11.6" rx="2" width="11.6" x="33" y="19.8"></rect><rect fill="currentColor" height="11.6" rx="2" width="11.6" x="19.4" y="33.4"></rect><rect fill="currentColor" height="11.6" rx="2" width="11.6" x="33" y="33.4"></rect><path d="M22.7 23.2h5.2M22.7 25.6h5.2M22.7 28h5.2" fill="none" stroke-linecap="round" stroke-width="1.8" style="stroke:#0F1B2E"></path><path d="M36.4 27.7v-2.6M39.1 27.7v-3.9M41.8 27.7v-5.5" fill="none" stroke-linecap="round" stroke-width="1.9" style="stroke:#0F1B2E"></path><circle cx="23" cy="37.7" r="1.7" style="fill:#0F1B2E"></circle><circle cx="27.4" cy="37.7" r="1.7" style="fill:#0F1B2E"></circle><circle cx="23" cy="42" r="1.7" style="fill:#0F1B2E"></circle><circle cx="27.4" cy="42" r="1.7" style="fill:#0F1B2E"></circle><path d="M36.4 38.6h5.8M36.4 42.1h5.8" fill="none" stroke-linecap="round" stroke-width="1.9" style="stroke:#0F1B2E"></path></svg>